<?xml version="1.0" encoding="UTF-8" standalone="no"?>
<svg
   xmlns:dc="http://purl.org/dc/elements/1.1/"
   xmlns:cc="http://creativecommons.org/ns#"
   xmlns:rdf="http://www.w3.org/1999/02/22-rdf-syntax-ns#"
   xmlns:svg="http://www.w3.org/2000/svg"
   xmlns="http://www.w3.org/2000/svg"
   id="svg8"
   version="1.1"
   viewBox="0 0 7.9374998 7.9375002"
   height="30"
   width="30">
  <defs
     id="defs2" />
  <metadata
     id="metadata5">
    <rdf:RDF>
      <cc:Work
         rdf:about="">
        <dc:format>image/svg+xml</dc:format>
        <dc:type
           rdf:resource="http://purl.org/dc/dcmitype/StillImage" />
        <dc:title></dc:title>
      </cc:Work>
    </rdf:RDF>
  </metadata>
  <g
     transform="translate(0,-289.06248)"
     id="layer1">
    <rect
       y="289.44962"
       x="0.43431297"
       height="7.0826426"
       width="7.0826426"
       id="rect14"
       style="opacity:1;fill:#777777;fill-opacity:0.95833331;stroke-width:0.10583333;stroke:#000000;stroke-opacity:1;stroke-miterlimit:4;stroke-dasharray:none" />
    <path
       id="path821"
       transform="matrix(0.26458333,0,0,0.26458333,0,289.06248)"
       d="M 13.638672 3.2109375 C 12.982877 3.1288426 12.187466 3.6163848 11.482422 3.703125 C 10.542363 3.8187785 8.8312743 3.1139501 8.5410156 3.5195312 C 8.2507555 3.9249612 8.2501135 4.5619761 8.6640625 4.9902344 C 9.0780119 5.4184926 10.748047 5.234375 10.748047 5.234375 L 10.931641 15.652344 C 10.931641 15.652344 8.5078197 14.182525 6.9472656 14.794922 C 5.3867115 15.407357 4.048822 18.005776 3.515625 19.697266 C 2.9824278 21.388718 2.9481455 23.230467 3.515625 24.353516 C 4.0831046 25.476602 4.6836938 25.706193 5.8457031 26.070312 C 7.0077124 26.434281 9.2902962 26.36377 10.257812 25.947266 C 11.225329 25.530686 11.027008 24.567597 11.605469 24.599609 C 12.183929 24.633625 12.151994 25.728899 12.585938 25.824219 C 13.019881 25.919463 13.162218 25.756951 13.566406 25.333984 C 13.970594 24.911017 14.879358 23.866821 14.546875 23.128906 C 14.214394 22.390991 12.921681 23.190083 12.40625 22.455078 C 12.395894 21.909617 12.335252 20.554945 12.339844 19.451172 C 12.344417 18.347399 12.216797 15.775391 12.216797 15.775391 L 12.216797 5.234375 C 12.216797 5.234375 13.580631 5.6831939 14.056641 5.234375 C 14.53265 4.7855561 14.955317 4.2778935 14.240234 3.5195312 C 14.061464 3.3299312 13.85727 3.2383025 13.638672 3.2109375 z M 8.3574219 16.386719 C 9.2255378 16.418013 10.178238 16.803314 10.685547 17.736328 C 11.19285 18.669305 11.170571 20.032688 10.931641 21.105469 C 10.692712 22.178288 10.167413 23.519051 9.3984375 24.109375 C 8.6294624 24.699737 7.3232572 24.696153 6.5195312 24.476562 C 5.7158056 24.25667 5.2251323 23.925327 4.8652344 23.189453 C 4.5053364 22.453617 4.6671304 21.342546 4.8652344 20.371094 C 5.0633372 19.399604 5.4408271 18.172855 6.0898438 17.490234 C 6.7388604 16.807614 7.4893071 16.352703 8.3574219 16.386719 z "
       style="fill:#ffffff;stroke:#000000;stroke-width:0.4853048;stroke-linecap:butt;stroke-linejoin:miter;stroke-miterlimit:4;stroke-dasharray:none;stroke-opacity:1;fill-opacity:1" />
    <path
       id="path825"
       transform="matrix(0.26458333,0,0,0.26458333,0,289.06248)"
       d="M 19.787109 14.482422 C 19.571517 14.500826 19.363038 14.544544 19.167969 14.621094 C 17.607415 15.233491 16.269525 17.831948 15.736328 19.523438 C 15.203131 21.214889 15.168848 23.056639 15.736328 24.179688 C 16.303808 25.302774 16.902444 25.532365 18.064453 25.896484 C 19.226462 26.260453 21.509046 26.189941 22.476562 25.773438 C 23.444079 25.356858 23.245758 24.393769 23.824219 24.425781 C 24.402679 24.459797 24.370744 25.555071 24.804688 25.650391 C 25.238631 25.745635 25.683703 24.934837 26.087891 24.511719 C 26.492079 24.088752 26.838342 23.736423 26.505859 23.171875 C 26.173378 22.43396 24.952931 22.95349 24.4375 22.21875 C 23.922069 21.483859 24.333985 20.318617 24.464844 19.214844 C 24.595706 18.111071 24.712891 16.373047 24.712891 16.373047 C 25.309502 15.470647 23.807287 14.802283 23.150391 15.478516 C 23.150391 15.478516 21.296256 14.353591 19.787109 14.482422 z M 20.576172 16.214844 C 21.444288 16.246138 22.396988 16.629486 22.904297 17.5625 C 23.4116 18.495476 23.389321 19.85886 23.150391 20.931641 C 22.911462 22.00446 22.388116 23.345222 21.619141 23.935547 C 20.850166 24.525909 19.542007 24.522325 18.738281 24.302734 C 17.934555 24.082841 17.443882 23.751499 17.083984 23.015625 C 16.724086 22.279789 16.88588 21.168755 17.083984 20.197266 C 17.282087 19.225814 17.659577 17.999027 18.308594 17.316406 C 18.95761 16.633786 19.708057 16.180828 20.576172 16.214844 z "
       style="fill:#ffffff;stroke:#000000;stroke-width:0.4853048;stroke-linecap:butt;stroke-linejoin:miter;stroke-miterlimit:4;stroke-dasharray:none;stroke-opacity:1;fill-opacity:0.9675926" />
  </g>
</svg>
